HIERARCHY
ROOT Hips
{
	OFFSET 0.00 0.00 0.00
	CHANNELS 6 Xposition Yposition Zposition Xrotation Yrotation Zrotation
	JOINT Spine
	{
		OFFSET 0.00000 1.70439 2.55658
		CHANNELS 3 Xrotation Yrotation Zrotation
		JOINT Spine1
		{
			OFFSET 0.00000 0.59193 3.35699
			CHANNELS 3 Xrotation Yrotation Zrotation
			JOINT Spine2
			{
				OFFSET 0.00000 0.29710 3.39581
				CHANNELS 3 Xrotation Yrotation Zrotation
				JOINT Spine3
				{
					OFFSET 0.00000 0.00000 3.40878
					CHANNELS 3 Xrotation Yrotation Zrotation
					JOINT Neck
					{
						OFFSET 0.00000 -1.27828 8.94804
						CHANNELS 3 Xrotation Yrotation Zrotation
						JOINT Head
						{
							OFFSET 0.00000 -0.81390 4.61586
							CHANNELS 3 Xrotation Yrotation Zrotation
							End Site
							{
								OFFSET 0.00000 0.00001 5.51796
							}
						}
					}
					JOINT RightShoulder
					{
						OFFSET -1.18875 -1.98124 6.41925
						CHANNELS 3 Xrotation Yrotation Zrotation
						JOINT RightArm
						{
							OFFSET -5.90412 0.00000 0.00000
							CHANNELS 3 Xrotation Yrotation Zrotation
							JOINT RightForeArm
							{
								OFFSET -11.94674 0.00000 0.00000
								CHANNELS 3 Xrotation Yrotation Zrotation
								JOINT RightHand
								{
									OFFSET -10.17720 0.00000 0.00000
									CHANNELS 3 Xrotation Yrotation Zrotation
									JOINT RightHandEnd
									{
										OFFSET -2.84518 0.00000 0.00000
										CHANNELS 3 Xrotation Yrotation Zrotation
										End Site
										{
											OFFSET -2.84518 0.00000 0.00000
										}
									}
									JOINT RightHandThumb1
									{
										OFFSET -1.13807 -1.89679 -0.75871
										CHANNELS 3 Yrotation Xrotation Zrotation
										End Site
										{
											OFFSET -2.74823 -0.73639 0.00000
										}
									}
								}
							}
						}
					}
					JOINT LeftShoulder
					{
						OFFSET 1.18875 -1.98124 6.41925
						CHANNELS 3 Xrotation Yrotation Zrotation
						JOINT LeftArm
						{
							OFFSET 5.90412 0.00000 0.00000
							CHANNELS 3 Xrotation Yrotation Zrotation
							JOINT LeftForeArm
							{
								OFFSET 11.94674 0.00000 0.00000
								CHANNELS 3 Xrotation Yrotation Zrotation
								JOINT LeftHand
								{
									OFFSET 10.17720 0.00000 0.00000
									CHANNELS 3 Xrotation Yrotation Zrotation
									JOINT LeftHandEnd
									{
										OFFSET 2.84518 0.00000 0.00000
										CHANNELS 3 Xrotation Yrotation Zrotation
										End Site
										{
											OFFSET 2.84518 0.00000 0.00000
										}
									}
									JOINT LeftHandThumb1
									{
										OFFSET 1.13807 -1.89679 -0.75871
										CHANNELS 3 Yrotation Xrotation Zrotation
										End Site
										{
											OFFSET 2.74823 -0.73639 0.00000
										}
									}
								}
							}
						}
					}
				}
			}
		}
	}
	JOINT RightUpLeg
	{
		OFFSET -3.52662 0.00000 -1.03025
		CHANNELS 3 Xrotation Yrotation Zrotation
		JOINT RightLeg
		{
			OFFSET 0.00001 0.00000 -17.80159
			CHANNELS 3 Xrotation Yrotation Zrotation
			JOINT RightFoot
			{
				OFFSET 0.00001 0.00000 -16.85992
				CHANNELS 3 Xrotation Yrotation Zrotation
				JOINT RightToeBase
				{
					OFFSET 0.00000 -5.42953 -1.97619
					CHANNELS 3 Xrotation Yrotation Zrotation
					End Site
					{
						OFFSET 0.00000 -2.85300 -0.00000
					}
				}
			}
		}
	}
	JOINT LeftUpLeg
	{
		OFFSET 3.52662 0.00000 -1.03025
		CHANNELS 3 Xrotation Yrotation Zrotation
		JOINT LeftLeg
		{
			OFFSET 0.00001 0.00000 -17.80159
			CHANNELS 3 Xrotation Yrotation Zrotation
			JOINT LeftFoot
			{
				OFFSET 0.00001 0.00000 -16.85992
				CHANNELS 3 Xrotation Yrotation Zrotation
				JOINT LeftToeBase
				{
					OFFSET 0.00000 -5.42953 -1.97619
					CHANNELS 3 Xrotation Yrotation Zrotation
					End Site
					{
						OFFSET 0.00000 -2.85300 -0.00000
					}
				}
			}
		}
	}
}
MOTION
Frames: 15
Frame Time: 0.008342
 16.2487 -85.6413 40.3692 -9.1056 -2.0360 104.0341 2.8001 -3.6055 -1.9564 1.6543 -1.3976 -0.3470 1.2157 -4.5816 -4.3258 0.5897 -1.1154 1.0535 7.6973 -2.6084 0.7433 4.2631 4.0779 10.6064 24.1048 -14.4831 -9.8318 -12.5848 -46.8075 -4.7438 -0.0000 0.0000 42.4647 -7.8872 29.8669 -5.4096 0.0000 -0.0000 0.0000 -0.0000 -0.0000 -0.0000 22.3349 2.5342 -8.7432 46.5450 42.6575 -54.5554 -0.0000 -0.0000 -41.2252 -17.8790 -17.9066 -5.9965 -0.0000 0.0000 -0.0000 0.0000 0.0000 0.0000 -25.1427 7.0389 -22.4540 25.0911 0.0000 0.0000 10.2527 -1.6651 -10.0006 -3.1770 0.0000 -0.0000 0.6532 8.1568 1.8341 20.4227 0.0000 0.0000 15.9276 5.2188 -5.8137 -15.1319 0.0000 -0.0000
 16.6027 -85.8839 40.1522 -9.1862 -1.8455 105.0074 2.6678 -3.6321 -2.0556 1.6333 -1.4318 -0.3439 1.0947 -4.6660 -4.3674 0.5544 -1.1282 1.0947 7.6709 -2.6302 0.7270 4.1551 4.1075 10.7238 24.1947 -14.3762 -10.2194 -12.7914 -46.3378 -5.4446 -0.0000 0.0000 42.4717 -7.8235 29.7167 -5.5565 0.0000 0.0000 0.0000 0.0000 -0.0000 -0.0000 22.6151 2.5972 -8.5791 47.2618 42.0660 -55.1890 -0.0000 -0.0000 -42.5048 -17.4753 -17.1979 -6.2440 -0.0000 0.0000 0.0000 -0.0000 -0.0000 0.0000 -25.5353 7.1378 -22.6402 23.6448 0.0000 0.0000 10.2780 -2.0884 -9.2865 -3.3729 0.0000 -0.0000 1.1003 8.7501 2.5140 18.9515 0.0000 0.0000 16.6451 5.5132 -6.0532 -15.0830 0.0000 -0.0000
 16.9547 -86.1330 39.9079 -9.3155 -1.6650 105.9737 2.5304 -3.6591 -2.1600 1.6213 -1.4633 -0.3429 0.9772 -4.7841 -4.4059 0.5202 -1.1510 1.1438 7.6553 -2.6423 0.7139 4.0032 4.1404 10.8259 24.2371 -14.2598 -10.5723 -12.9839 -45.8615 -6.1486 -0.0000 0.0000 42.4370 -7.6260 29.6451 -5.7844 0.0000 0.0000 -0.0000 -0.0000 -0.0000 0.0000 22.8875 2.6470 -8.4211 47.8670 41.5726 -55.7105 -0.0000 -0.0000 -43.8330 -17.1360 -16.4736 -6.4518 0.0000 -0.0000 0.0000 -0.0000 0.0000 0.0000 -25.9914 7.2002 -22.6803 22.4477 0.0000 0.0000 10.3353 -2.3832 -8.6944 -3.4950 0.0000 -0.0000 1.4767 9.2930 3.2024 17.6828 0.0000 0.0000 17.2049 5.3469 -6.0422 -15.2213 0.0000 -0.0000
 17.3040 -86.3886 39.6364 -9.4854 -1.4956 106.9450 2.3823 -3.6767 -2.2704 1.6226 -1.4889 -0.3441 0.8713 -4.9363 -4.4443 0.4876 -1.1848 1.1984 7.6460 -2.6553 0.7012 3.7989 4.1761 10.9110 24.2370 -14.1342 -10.8827 -13.1644 -45.3828 -6.8520 -0.0000 0.0000 42.3516 -7.3294 29.6561 -6.0799 0.0000 -0.0000 0.0000 -0.0000 -0.0000 0.0000 23.1489 2.6701 -8.2928 48.3745 41.1819 -56.1277 -0.0000 -0.0000 -45.2073 -16.8605 -15.7769 -6.6313 0.0000 -0.0000 0.0000 0.0000 0.0000 0.0000 -26.5172 7.2463 -22.5577 21.5200 0.0000 0.0000 10.4405 -2.5263 -8.2317 -3.5519 0.0000 -0.0000 1.7726 9.7853 3.8524 16.6813 0.0000 0.0000 17.4956 4.6800 -5.8200 -15.5903 0.0000 -0.0000
 17.6524 -86.6496 39.3386 -9.6457 -1.4053 107.9225 2.3092 -3.6516 -2.3701 1.6309 -1.5114 -0.3474 0.7801 -5.1218 -4.4928 0.4584 -1.2265 1.2572 7.6314 -2.6874 0.6840 3.5410 4.2161 10.9793 24.2075 -14.0036 -11.1450 -13.3357 -44.9074 -7.5434 -0.0000 0.0000 42.2080 -6.9596 29.7407 -6.4366 0.0000 0.0000 0.0000 0.0000 -0.0000 0.0000 23.3960 2.6478 -8.2025 48.8032 40.8857 -56.4613 -0.0000 -0.0000 -46.6256 -16.6537 -15.1441 -6.7981 0.0000 -0.0000 -0.0000 -0.0000 0.0000 0.0000 -27.0389 7.3075 -22.2298 20.8814 0.0000 0.0000 10.5941 -2.5230 -7.9073 -3.5626 0.0000 -0.0000 2.0868 10.2416 4.4292 15.9564 0.0000 0.0000 17.4466 3.4952 -5.4486 -16.2166 0.0000 -0.0000
 17.9970 -86.9164 39.0146 -9.7969 -1.3333 108.9222 2.2403 -3.5756 -2.4658 1.6561 -1.5239 -0.3526 0.7139 -5.3337 -4.5510 0.4367 -1.2728 1.3140 7.5921 -2.7589 0.6588 3.2293 4.2641 11.0304 24.1387 -13.8909 -11.3448 -13.4943 -44.4195 -8.2233 -0.0000 0.0000 41.9988 -6.5644 29.8876 -6.8297 0.0000 -0.0000 -0.0000 0.0000 -0.0000 -0.0000 23.6114 2.5804 -8.1662 49.1589 40.6800 -56.6972 -0.0000 -0.0000 -48.0915 -16.4993 -14.6003 -6.9539 -0.0000 0.0000 0.0000 -0.0000 -0.0000 -0.0000 -27.6222 7.4104 -21.6774 20.5405 0.0000 0.0000 10.8115 -2.4097 -7.7255 -3.5519 0.0000 -0.0000 2.3427 10.6637 4.8617 15.5721 0.0000 0.0000 16.9787 1.8158 -4.9741 -17.1107 0.0000 -0.0000
 18.3405 -87.1874 38.6675 -9.9010 -1.3559 109.9485 2.2705 -3.4477 -2.5460 1.6882 -1.5189 -0.3612 0.6773 -5.5616 -4.6275 0.4217 -1.3284 1.3701 7.5172 -2.8800 0.6224 2.8617 4.3156 11.0645 24.0347 -13.8144 -11.4786 -13.6164 -43.9067 -8.8649 -0.0000 0.0000 41.7172 -6.1808 30.0979 -7.2504 -0.0000 0.0000 0.0000 0.0000 0.0000 0.0000 23.7878 2.4708 -8.1941 49.4471 40.5506 -56.8271 -0.0000 -0.0000 -49.6074 -16.4050 -14.1581 -7.1221 0.0000 -0.0000 0.0000 -0.0000 0.0000 -0.0000 -28.1646 7.5666 -20.9001 20.4846 0.0000 0.0000 11.0886 -2.2417 -7.6629 -3.5466 0.0000 -0.0000 2.6529 11.0416 5.1193 15.5182 0.0000 0.0000 16.0550 -0.3170 -4.4727 -18.2505 0.0000 -0.0000
 18.6798 -87.4625 38.2979 -9.9388 -1.4069 111.0048 2.3445 -3.2361 -2.6026 1.7307 -1.4980 -0.3721 0.6752 -5.7987 -4.7237 0.4148 -1.3813 1.4163 7.3847 -3.0731 0.5694 2.4485 4.3734 11.0872 23.8907 -13.8007 -11.5317 -13.7022 -43.3568 -9.4667 -0.0000 0.0000 41.3530 -5.8399 30.3588 -7.6666 0.0000 -0.0000 -0.0000 -0.0000 -0.0000 -0.0000 23.9173 2.3161 -8.2795 49.6715 40.4730 -56.8581 -0.0000 -0.0000 -51.1617 -16.3549 -13.8300 -7.3048 0.0000 -0.0000 0.0000 -0.0000 0.0000 0.0000 -28.7359 7.8151 -19.8719 20.7339 0.0000 0.0000 11.4065 -2.1031 -7.7048 -3.5707 0.0000 -0.0000 2.9560 11.3992 5.1470 15.8159 0.0000 0.0000 14.6437 -2.8192 -3.9773 -19.5738 0.0000 -0.0000
 19.0134 -87.7416 37.9081 -9.9073 -1.4467 112.0936 2.4332 -2.9425 -2.6343 1.7839 -1.4514 -0.3838 0.7067 -6.0325 -4.8400 0.4155 -1.4305 1.4506 7.1816 -3.3454 0.4963 1.9957 4.4337 11.1004 23.7011 -13.8776 -11.4968 -13.7387 -42.7519 -10.0192 -0.0000 0.0000 40.9033 -5.5617 30.6708 -8.0710 -0.0000 0.0000 0.0000 0.0000 -0.0000 0.0000 23.9802 2.1335 -8.4256 49.8349 40.4367 -56.7674 -0.0000 -0.0000 -52.7483 -16.3383 -13.5984 -7.5137 -0.0000 0.0000 -0.0000 0.0000 0.0000 0.0000 -29.3680 8.1683 -18.5935 21.2863 0.0000 0.0000 11.7340 -2.0913 -7.8263 -3.6448 0.0000 -0.0000 3.2178 11.7407 4.9055 16.4689 0.0000 0.0000 12.7271 -5.5811 -3.5115 -20.9743 0.0000 -0.0000
 19.3470 -88.0230 37.5037 -9.7870 -1.5882 113.2127 2.6666 -2.6105 -2.6359 1.8354 -1.3726 -0.3925 0.7684 -6.2516 -4.9773 0.4208 -1.4725 1.4711 6.8991 -3.6974 0.3992 1.5195 4.4865 11.1069 23.4592 -14.0535 -11.3793 -13.7105 -42.0980 -10.5139 -0.0000 0.0000 40.3639 -5.3500 31.0350 -8.4503 -0.0000 -0.0000 -0.0000 -0.0000 -0.0000 0.0000 23.9701 1.9280 -8.6155 49.9487 40.4190 -56.5684 -0.0000 -0.0000 -54.3448 -16.3362 -13.4481 -7.7520 0.0000 0.0000 -0.0000 -0.0000 0.0000 0.0000 -29.9050 8.5897 -17.1188 22.1029 0.0000 0.0000 12.0174 -2.2963 -7.9787 -3.7830 0.0000 -0.0000 3.5904 12.0234 4.4160 17.4202 0.0000 0.0000 10.3083 -8.4835 -3.1312 -22.3002 0.0000 -0.0000
 19.6745 -88.3078 37.0856 -9.6126 -1.6600 114.3566 2.8759 -2.2146 -2.6105 1.8894 -1.2791 -0.4008 0.8585 -6.4304 -5.1286 0.4318 -1.5086 1.4788 6.5278 -4.1234 0.2760 1.0335 4.5300 11.1083 23.1608 -14.3484 -11.1792 -13.6230 -41.3876 -10.9461 -0.0000 0.0000 39.7298 -5.2005 31.4552 -8.7988 0.0000 -0.0000 -0.0000 0.0000 0.0000 0.0000 23.8869 1.7227 -8.8426 49.9974 40.4053 -56.2501 -0.0000 -0.0000 -55.9239 -16.3356 -13.3501 -8.0192 0.0000 0.0000 0.0000 -0.0000 0.0000 -0.0000 -30.5427 9.1034 -15.4568 23.2072 0.0000 0.0000 12.1927 -2.8062 -8.1351 -3.9921 0.0000 -0.0000 3.8719 12.2839 3.6483 18.6822 0.0000 0.0000 7.3989 -11.3778 -2.7965 -23.3754 0.0000 -0.0000
 20.0019 -88.5936 36.6604 -9.3870 -1.7624 115.5134 3.1653 -1.8254 -2.5603 1.9384 -1.1439 -0.4002 0.9669 -6.5771 -5.2904 0.4424 -1.5337 1.4729 6.0745 -4.6035 0.1266 0.5549 4.5515 11.1049 22.8041 -14.7529 -10.9086 -13.4788 -40.6409 -11.3192 -0.0000 0.0000 39.0036 -5.0851 31.9397 -9.1287 -0.0000 -0.0000 -0.0000 0.0000 -0.0000 -0.0000 23.7297 1.5337 -9.0857 49.9910 40.3838 -55.8278 -0.0000 -0.0000 -57.4472 -16.3095 -13.2745 -8.3145 -0.0000 0.0000 0.0000 0.0000 -0.0000 0.0000 -31.1429 9.6505 -13.6914 24.5520 0.0000 0.0000 12.1846 -3.6731 -8.2548 -4.2689 0.0000 -0.0000 4.1899 12.4735 2.6648 20.1723 0.0000 0.0000 4.0360 -14.1379 -2.5364 -24.0285 0.0000 -0.0000
 20.3272 -88.8795 36.2309 -9.1282 -1.8080 116.6632 3.4581 -1.4152 -2.4884 1.9747 -1.0123 -0.4052 1.0913 -6.6594 -5.4334 0.4483 -1.5492 1.4517 5.5496 -5.1123 -0.0459 0.0994 4.5441 11.0960 22.3977 -15.2531 -10.5756 -13.3104 -39.8822 -11.6465 0.0000 0.0000 38.1872 -4.9714 32.4887 -9.4485 0.0000 -0.0000 0.0000 -0.0000 0.0000 0.0000 23.5049 1.3817 -9.3299 49.9226 40.3603 -55.3065 -0.0000 -0.0000 -58.8755 -16.2330 -13.1772 -8.6222 -0.0000 0.0000 -0.0000 -0.0000 0.0000 -0.0000 -31.8031 10.2353 -11.8627 26.1445 0.0000 0.0000 11.9167 -4.9180 -8.3166 -4.6034 0.0000 -0.0000 4.4556 12.6261 1.4907 21.8348 0.0000 0.0000 0.2911 -16.6419 -2.3061 -24.1181 0.0000 -0.0000
 20.6535 -89.1630 35.8028 -8.8604 -1.8060 117.7834 3.7491 -1.0285 -2.4037 2.0053 -0.8599 -0.4015 1.2131 -6.6906 -5.5626 0.4529 -1.5537 1.4245 4.9694 -5.6195 -0.2329 -0.3199 4.5012 11.0782 21.9382 -15.8268 -10.1975 -13.1217 -39.1360 -11.9214 0.0000 0.0000 37.2788 -4.8357 33.1177 -9.7661 0.0000 0.0000 0.0000 0.0000 -0.0000 0.0000 23.2292 1.2843 -9.5549 49.7897 40.3325 -54.7108 -0.0000 -0.0000 -60.1589 -16.0917 -13.0477 -8.9340 -0.0000 -0.0000 -0.0000 -0.0000 -0.0000 0.0000 -32.5006 10.8151 -10.0438 27.9461 0.0000 0.0000 11.3324 -6.5163 -8.3164 -4.9705 0.0000 -0.0000 4.6818 12.7258 0.1969 23.5929 0.0000 0.0000 -3.7541 -18.8072 -2.0932 -23.5652 0.0000 -0.0000
 20.9829 -89.4407 35.3814 -8.5986 -1.7559 118.8463 4.0301 -0.6758 -2.3129 2.0255 -0.7037 -0.3925 1.3285 -6.6654 -5.6570 0.4528 -1.5473 1.3921 4.3586 -6.0948 -0.4254 -0.6954 4.4264 11.0515 21.4381 -16.4429 -9.7859 -12.9540 -38.4332 -12.1561 0.0000 0.0000 36.2866 -4.6374 33.8199 -10.1075 0.0000 0.0000 -0.0000 -0.0000 -0.0000 -0.0000 22.9163 1.2603 -9.7410 49.5915 40.3151 -54.0614 -0.0000 -0.0001 -61.2503 -15.8712 -12.8616 -9.2343 -0.0000 0.0000 -0.0000 0.0000 -0.0000 -0.0000 -33.2272 11.3604 -8.2988 29.9221 0.0000 0.0000 10.3940 -8.4016 -8.2651 -5.3355 0.0000 -0.0000 4.8744 12.7750 -1.1528 25.3664 0.0000 0.0000 -7.9892 -20.5855 -1.8677 -22.3625 0.0000 -0.0000
